# xmcd
#
# Track frame offsets:
#	150
#	11454
#	23215
#	36822
#	48022
#	68023
#	81062
#	92427
#	102864
#	117558
#	137497
#	152563
#	164328
#	174439
#	190109
#	201855
#
# Disc length: 2842 seconds
#
# Revision: 0
# Processed by: cddbd v1.5.2PL0 Copyright (c) Steve Scherf et al.
# Submitted via: audiograbber 1.83.01
#
DISCID=bd0b1810
DTITLE=Various Artist - CB 60'S COUNTRY 5084-03
DYEAR=1900
DGENRE=COUNTRY
TTITLE0=EDDY ARNOLD - WHAT'S HE DOING IN MY WORLD
TTITLE1=JIM ED BROWN - POP A TOP
TTITLE2=MERLE HAGGARD - THE BOTTLE LET ME DOWN
TTITLE3=I DON'T CARE (JUST AS LONG AS YOU LOVE ME) - BUCK OWENS
TTITLE4=BOBBY GOLDSBORO - HONEY
TTITLE5=GLEN CAMPBELL - GALVESTON
TTITLE6=BUCK OWENS - BEFORE YOU GO
TTITLE7=MERLE HAGGARD - MAMA TRIED
TTITLE8=CHARLIE RICH - MY ELUSIVE DREAMS
TTITLE9=BOBBIE GENTRY - ODE TO BILLY JOE
TTITLE10=CHARLIE PRIDE - ALL I HAVE TO OFFER YOU IS ME
TTITLE11=GLEN CAMPBELL - TRY A LITTLE KINDNESS
TTITLE12=MARTY ROBBINS - RUBY ANN
TTITLE13=LEFTY FRIZZELL - SAGINAW MICHIGAN
TTITLE14=MERLE HAGGARD - WORKING MAN BLUES
TTITLE15=SONNY JAMES - YOU'RE THE ONLY WORLD I KNOW
EXTD=
EXTT0=
EXTT1=
EXTT2=
EXTT3=
EXTT4=
EXTT5=
EXTT6=
EXTT7=
EXTT8=
EXTT9=
EXTT10=
EXTT11=
EXTT12=
EXTT13=
EXTT14=
EXTT15=
PLAYORDER=
